HIERARCHY
ROOT ui
{
	 OFFSET 0 0 0
	 CHANNELS 3 XPosition YPosition Z Position
	 EndSite
	 {
	 OFFSET 0 -1 0
	 }
}
ROOT li
{
	 OFFSET 0 0 0
	 CHANNELS 3 XPosition YPosition Z Position
	 EndSite
	 {
	 OFFSET 0 -1 0
	 }
}
ROOT ul
{
	 OFFSET 0 0 0
	 CHANNELS 3 XPosition YPosition Z Position
	 EndSite
	 {
	 OFFSET 0 -1 0
	 }
}
ROOT ll
{
	 OFFSET 0 0 0
	 CHANNELS 3 XPosition YPosition Z Position
	 EndSite
	 {
	 OFFSET 0 -1 0
	 }
}
ROOT tt
{
	 OFFSET 0 0 0
	 CHANNELS 3 XPosition YPosition Z Position
	 EndSite
	 {
	 OFFSET 0 -1 0
	 }
}
ROOT tb
{
	 OFFSET 0 0 0
	 CHANNELS 3 XPosition YPosition Z Position
	 EndSite
	 {
	 OFFSET 0 -1 0
	 }
}
ROOT td
{
	 OFFSET 0 0 0
	 CHANNELS 3 XPosition YPosition Z Position
	 EndSite
	 {
	 OFFSET 0 -1 0
	 }
}
ROOT v
{
	 OFFSET 0 0 0
	 CHANNELS 3 XPosition YPosition Z Position
	 EndSite
	 {
	 OFFSET 0 -1 0
	 }
}
ROOT bn
{
	 OFFSET 0 0 0
	 CHANNELS 3 XPosition YPosition Z Position
	 EndSite
	 {
	 OFFSET 0 -1 0
	 }
}
MOTION
Frames: 10
Frame Time: 0.002
-0.002559607982635498	-0.001043233036994934	0		0.48872210693359375	-2.329777587890625	0		-0.9985084838867188	0.06898431396484375	0		-0.6705523681640625	-2.452987548828125	0		1.6583116455078124	-0.5495018310546875	0		3.323983642578125	-0.699984375	0		4.57355224609375	-0.5603148193359375	0		5.93510107421875	0.39656072998046876	0		-0.07117742156982422	5.93299560546875	0		
-0.009739474296569824	-0.00729400110244751	0		0.49637265014648435	-2.341301513671875	0		-0.9985841674804687	0.06864778137207031	0		-0.6259286499023438	-2.466104248046875	0		1.649027099609375	-0.5607759399414063	0		3.31524169921875	-0.6793216552734375	0		4.56555859375	-0.5547108764648437	0		5.9391728515625	0.4039111022949219	0		-0.04165769958496094	5.95512646484375	0		
-0.0076211061477661135	0.003320940017700195	0		0.4443333740234375	-2.3337802734375	0		-1.0715545654296874	0.0745919189453125	0		-0.6708883666992187	-2.4536572265625	0		1.6348502197265624	-0.5659529418945313	0		3.321314453125	-0.669913330078125	0		4.5716533203125	-0.5443546142578125	0		5.94425634765625	0.4112279052734375	0		-0.04246286392211914	5.9557958984375	0		
0.022373636245727538	0.005480512142181397	0		0.4902658996582031	-2.32891796875	0		-0.9905640258789062	0.07592449188232422	0		-0.6350977783203124	-2.456568603515625	0		1.6467861328125	-0.5655616455078125	0		3.319453857421875	-0.65736328125	0		4.5715751953125	-0.544896728515625	0		5.93494970703125	0.3947775573730469	0		-0.057418441772460936	5.9447333984375	0		
0.0012814879417419433	0.0015471529960632323	0		0.48808038330078124	-2.331204833984375	0		-0.985535400390625	0.07859548187255859	0		-0.6264298706054687	-2.466983642578125	0		1.6395921630859376	-0.5738231201171875	0		3.32247802734375	-0.6528889770507813	0		4.57151904296875	-0.54543701171875	0		5.93908154296875	0.4020940246582031	0		-0.04390393829345703	5.95721484375	0		
0.018302963256835936	0.001988304018974304	0		0.5128589477539063	-2.33693017578125	0		-0.9914366455078125	0.08349275970458984	0		-0.6741287231445312	-2.441383056640625	0		1.63956494140625	-0.57418408203125	0		3.300778564453125	-0.6339711303710938	0		4.5636162109375	-0.5388336181640625	0		5.93497412109375	0.39354959106445314	0		-0.09279796600341797	5.9428046875	0		
-0.0076486411094665524	0.0022080440521240236	0		0.4318877258300781	-2.328786865234375	0		-1.053325439453125	0.08740258026123048	0		-0.6436624755859375	-2.4661064453125	0		1.64829296875	-0.5906741943359375	0		3.30486865234375	-0.6294837036132812	0		4.562921875	-0.5223418579101563	0		5.93918212890625	0.40086807250976564	0		-0.043120113372802735	5.95672509765625	0		
0.023344139099121093	-0.0035286738872528076	0		0.5064708862304688	-2.3493193359375	0		-1.04002734375	0.09904859161376953	0		-0.65897021484375	-2.47899560546875	0		1.6073785400390626	-0.588267822265625	0		3.324483642578125	-0.5972420654296875	0		4.57602099609375	-0.520076416015625	0		5.9444326171875	0.4081787414550781	0		-0.042630332946777344	5.95653076171875	0		
0.004594995975494385	0.003640122890472412	0		0.4648564453125	-2.324784423828125	0		-1.0358427734375	0.1018905029296875	0		-0.6288678588867187	-2.470637451171875	0		1.6514906005859376	-0.5873150634765625	0		3.305674560546875	-0.5913078002929687	0		4.5702509765625	-0.5124593505859375	0		5.93944775390625	0.39968344116210935	0		0.0731639404296875	5.9693544921875	0		
0.022774391174316407	0.004197763919830322	0		0.48772329711914064	-2.33234716796875	0		-0.9637525634765625	0.09657490539550781	0		-0.6817886962890625	-2.464784423828125	0		1.6014610595703125	-0.5956799926757812	0		3.30420068359375	-0.5686439208984375	0		4.57758740234375	-0.5010450134277343	0		5.93550146484375	0.3911939392089844	0		-0.057617992401123044	5.948533203125	0		
